<svg baseprofile="full" xmlns="http://www.w3.org/2000/svg" version="1.1" preserveAspectRatio="xMidYMid meet" viewBox="0 0 100 100">
	<path d="M3 97 L 26 75 L 34 80 L 34 89 Z" style="stroke: none; fill: #eeeeee" />
	<path d="M3 97 L 12 66 L 20 66 L 26 75 Z" style="stroke: white; fill: white" />
	<path d="M3 97 L 7.5 81.5 L 18.5 93 Z" style="stroke: none; fill: #888" />
	<path d="M3 97 L 12 66 L 20 66 L 26 75 L 34 80 L 34 89 Z" style="stroke-width: 6; stroke: black; stroke-linejoin: round; fill: none" />
	<path d="M12 66 L 62 17 L 73 28 L 26 75 L 20 66 Z" style="stroke-width: 6; stroke: black; stroke-linejoin: bevel; fill: yellow" />
	<path d="M34 89 L 34 80 L 26 75 L 73 28 L 84 39 Z" style="stroke-width: 6; stroke: black; stroke-linejoin: bevel; fill: #dddd00" />
	<path d="M62 17 L 73 6 Q 76 3,79 6 L 87 14 L 73 28 Z" style="stroke: red; fill: red" />
	<path d="M73 28 L 87 14 L 95 22 Q 98 25,95 28 L 84 39 Z" style="stroke: none; fill: #ee0000" />
	<path d="M62 17 L 73 6 Q 76 3,79 6 L 95 22 Q 98 25,95 28 L 84 39 Z" style="stroke-width: 6; stroke: black; fill: none" />
</svg>

